<svg xmlns="http://www.w3.org/2000/svg" viewBox="0 0 180.47 176.52"><g fill="#f56248"><path d="M89.12 22.35H34.43a1.55 1.55 0 0 1-.53 0c-.59-.21-1.16-.45-1.74-.69a5.5 5.5 0 0 1 1-1.7A91.92 91.92 0 0 1 99.74.5a91.23 91.23 0 0 1 26.7 6.93 89.41 89.41 0 0 1 20 11.76 11.31 11.31 0 0 1 1.61 1.4.94.94 0 0 1-.6 1.67 10.56 10.56 0 0 1-1.87.09H91c.48.59.71.93 1 1.22q6.3 6.29 12.62 12.55a10.13 10.13 0 0 0 7.61 3c17.09-.07 34.18 0 51.28-.08a2.76 2.76 0 0 1 2.6 1.42 93 93 0 0 1 8.58 16.76c.68 1.7.33 2.2-1.52 2.2h-47.8a8.49 8.49 0 0 1-6.07-2.7c-3.94-3.89-7.85-7.8-11.77-11.71-1.52-1.51-1.66-1.54-3.21 0-4.32 4.27-8.63 8.53-12.9 12.84-.91.91-1.59.86-2.47 0q-6.57-6.59-13.2-13.12c-1.11-1.1-1.41-1.13-2.52 0-3.83 3.81-7.67 7.61-11.45 11.46a10.3 10.3 0 0 1-7.72 3.34H7.6C5.35 59.4 5 59 5.86 56.89a91 91 0 0 1 8.58-16.61A2.59 2.59 0 0 1 16.86 39c17.19 0 34.37 0 51.55.07a10.16 10.16 0 0 0 7.64-3.19c4.08-4.12 8.21-8.2 12.32-12.29.3-.3.58-.61.87-.92z" opacity=".7"/><path d="M90.21 98.45H69.73a15.64 15.64 0 0 1-11.87-4.91c-3.15-3.23-6.36-6.4-9.56-9.57-1.59-1.58-1.77-1.57-3.32 0-3.84 3.86-7.72 7.68-11.52 11.57a12.45 12.45 0 0 1-9.32 4H2.45c-1.63 0-1.82-.21-2-1.84A87.38 87.38 0 0 1 .42 80c.19-1.75.35-1.91 2.17-1.91 12.36 0 24.73 0 37.09.06a11.67 11.67 0 0 0 9.19-3.74c3.43-3.63 7.05-7.08 10.59-10.61 1.91-1.91 1.92-1.91 3.88.06 3.47 3.48 7 6.91 10.38 10.44a12.17 12.17 0 0 0 9.35 3.83c4.87-.07 9.73-.06 14.6 0a11.87 11.87 0 0 0 9-3.74c3.61-3.65 7.24-7.27 10.86-10.91 1.44-1.45 1.71-1.47 3.13-.06 3.81 3.82 7.63 7.63 11.42 11.47a10.5 10.5 0 0 0 7.79 3.25h37.63c2.36 0 2.37 0 2.62 2.33a89.76 89.76 0 0 1-.13 17.5 1.5 1.5 0 0 1-1.74 1.56h-22.09a12.28 12.28 0 0 1-9.09-3.86q-5.79-5.85-11.61-11.68c-1.5-1.51-1.79-1.48-3.32.06-3.52 3.55-7 7.13-10.63 10.57a14 14 0 0 1-10 3.87H90.22zM90.07 137.49c-22.09 0-44.18-.13-66.27.09-6.57.07-10.92-2.52-13.57-8.32-1.88-4.13-2.33-2.92 1-6.23q10.26-10.27 20.56-20.51c1.47-1.47 1.77-1.49 3.24 0 3.63 3.63 7.26 7.25 10.87 10.9a11.89 11.89 0 0 0 8.84 3.74h71.36a11.42 11.42 0 0 0 8.36-3.59l11-11c1.54-1.54 1.8-1.54 3.34 0 7.29 7.28 14.57 14.58 21.9 21.82a2.21 2.21 0 0 1 .46 3.15c-.88 1.45-1.62 3-2.48 4.44a10.83 10.83 0 0 1-10 5.54zM90.37 154.15h55.15a4.37 4.37 0 0 1 1.2 0 12.46 12.46 0 0 1 1.59.71 4.82 4.82 0 0 1-.8 1.53 80.13 80.13 0 0 1-17.06 11 91.46 91.46 0 0 1-47.69 8.84 89.38 89.38 0 0 1-47.51-17.92 24.45 24.45 0 0 1-2.48-2 1.66 1.66 0 0 1-.52-1.34 1.64 1.64 0 0 1 1.23-.73c1.11-.1 2.23 0 3.35 0z"/></g></svg>